<?xml version="1.0" standalone="no"?>
<!DOCTYPE svg PUBLIC "-//W3C//DTD SVG 20010904//EN"
 "http://www.w3.org/TR/2001/REC-SVG-20010904/DTD/svg10.dtd">
<svg version="1.0" xmlns="http://www.w3.org/2000/svg"
 width="512.000000pt" height="512.000000pt" viewBox="0 0 512.000000 512.000000"
 preserveAspectRatio="xMidYMid meet">
<metadata>
Created by potrace 1.16, written by Peter Selinger 2001-2019
</metadata>
<g transform="translate(0.000000,512.000000) scale(0.100000,-0.100000)"
fill="#000000" stroke="none">
<path d="M431 5104 c-178 -48 -322 -178 -397 -359 l-29 -70 -3 -615 -3 -616
23 -34 c65 -96 203 -99 272 -7 21 28 21 38 26 605 l5 577 28 57 c31 64 70 101
137 132 44 20 63 21 622 26 567 5 577 5 605 26 92 69 89 207 -7 271 l-33 23
-596 -1 c-487 0 -606 -3 -650 -15z"/>
<path d="M3410 5098 c-96 -65 -99 -203 -7 -272 28 -21 38 -21 605 -26 559 -5
578 -6 622 -26 67 -31 106 -68 137 -132 l28 -57 5 -577 c5 -567 5 -577 26
-605 69 -92 207 -89 271 7 l23 33 0 591 c0 657 1 650 -67 778 -66 127 -166
215 -308 274 l-70 29 -615 3 -616 3 -34 -23z"/>
<path d="M1154 3830 c-32 -13 -82 -76 -89 -112 -4 -18 -5 -119 -3 -225 3 -176
5 -194 24 -220 38 -51 81 -73 143 -73 67 0 104 21 138 77 22 36 23 47 23 241
0 229 -8 260 -73 301 -36 22 -121 28 -163 11z"/>
<path d="M2523 3819 c-72 -46 -67 -7 -73 -674 -5 -595 -5 -600 -27 -641 -28
-53 -74 -99 -127 -126 -36 -19 -63 -23 -213 -27 -190 -7 -202 -11 -251 -82
-20 -28 -23 -44 -20 -92 5 -69 27 -103 88 -134 40 -21 58 -23 190 -23 176 0
257 16 367 70 112 55 198 141 253 253 70 142 71 153 68 812 -3 574 -3 584 -24
612 -11 15 -36 38 -54 51 -44 30 -131 30 -177 1z"/>
<path d="M3592 3820 c-67 -41 -72 -60 -72 -300 0 -197 2 -218 20 -248 30 -48
75 -72 140 -72 65 0 110 24 140 72 18 30 20 51 20 248 0 197 -2 218 -20 248
-30 48 -75 72 -140 72 -37 0 -66 -6 -88 -20z"/>
<path d="M107 1776 c-46 -17 -81 -48 -97 -85 -7 -19 -10 -204 -8 -636 l3 -610
29 -70 c59 -142 147 -242 274 -308 128 -68 121 -67 778 -67 l591 0 33 23 c96
64 99 202 7 271 -28 21 -38 21 -605 26 l-577 5 -57 28 c-64 31 -101 70 -132
137 -20 44 -21 63 -26 622 -5 567 -5 577 -26 605 -44 58 -122 83 -187 59z"/>
<path d="M4907 1776 c-42 -15 -72 -39 -90 -71 -9 -14 -13 -186 -17 -595 -5
-557 -6 -576 -26 -620 -31 -67 -68 -106 -132 -137 l-57 -28 -577 -5 c-567 -5
-577 -5 -605 -26 -92 -69 -89 -207 7 -271 l33 -23 591 0 c658 0 649 -1 780 68
93 48 190 145 238 238 69 131 68 122 68 780 l0 591 -23 33 c-42 63 -122 91
-190 66z"/>
<path d="M1630 1638 c-50 -26 -90 -89 -90 -143 0 -45 40 -121 107 -206 145
-181 356 -311 598 -366 48 -11 116 -16 215 -16 123 0 160 4 245 27 114 30 261
97 350 160 129 93 303 299 307 364 4 71 -6 105 -43 146 -37 43 -86 60 -145 51
-53 -8 -92 -38 -139 -110 -52 -78 -169 -185 -250 -227 -115 -60 -204 -82 -325
-83 -128 0 -188 14 -305 70 -142 69 -196 118 -319 291 -22 31 -89 63 -131 64
-17 0 -51 -10 -75 -22z"/>
</g>
</svg>
