<?xml version="1.0" standalone="no"?>
<!DOCTYPE svg PUBLIC "-//W3C//DTD SVG 20010904//EN"
 "http://www.w3.org/TR/2001/REC-SVG-20010904/DTD/svg10.dtd">
<svg version="1.0" xmlns="http://www.w3.org/2000/svg"
 width="512.000000pt" height="512.000000pt" viewBox="0 0 512.000000 512.000000"
 preserveAspectRatio="xMidYMid meet">

<g transform="translate(0.000000,512.000000) scale(0.100000,-0.100000)"
fill="#000000" stroke="none">
<path d="M2210 3949 l-355 -714 -695 -112 c-382 -61 -703 -113 -713 -115 -12
-2 121 -159 478 -562 467 -528 495 -561 490 -590 -74 -401 -262 -1452 -261
-1453 1 -1 317 146 703 327 l702 329 702 -330 c387 -181 706 -328 709 -327 3
2 -54 332 -127 733 -73 402 -131 737 -129 746 2 9 223 264 491 568 268 304
485 555 482 558 -3 2 -309 54 -679 114 -370 59 -688 111 -706 114 -34 6 -36
10 -385 717 l-352 711 -355 -714z m551 -660 c130 -36 223 -92 329 -199 78 -77
104 -111 138 -180 58 -117 82 -218 82 -348 0 -123 -17 -204 -67 -312 -171
-375 -615 -540 -991 -369 -362 164 -536 593 -389 959 105 260 335 436 617 473
65 9 207 -3 281 -24z m465 -1790 c118 -56 112 -228 -8 -273 -38 -15 -112 -16
-675 -14 -623 3 -632 3 -660 24 -42 31 -73 83 -73 121 0 68 46 135 106 153 16
4 308 9 648 9 607 1 621 1 662 -20z"/>
<path d="M2510 3009 c-157 -22 -287 -115 -350 -252 -131 -280 46 -598 354
-637 265 -33 496 173 496 444 0 274 -234 481 -500 445z"/>
</g>
</svg>
